<svg width="363" height="312" viewBox="0 0 363 312" fill="none" xmlns="http://www.w3.org/2000/svg">
<mask id="mask0_32_10491" style="mask-type:luminance" maskUnits="userSpaceOnUse" x="1" y="154" width="83" height="121">
<path d="M1.91144 154.714H83.5833V274.339H1.91144V154.714Z" fill="white"/>
</mask>
<g mask="url(#mask0_32_10491)">
<path d="M1.91144 154.714H83.5833V274.349H1.91144V154.714Z" fill="#FBEB78"/>
</g>
<mask id="mask1_32_10491" style="mask-type:luminance" maskUnits="userSpaceOnUse" x="292" y="75" width="71" height="71">
<path d="M292.464 75.9792H362.458V145.974H292.464V75.9792Z" fill="white"/>
</mask>
<g mask="url(#mask1_32_10491)">
<mask id="mask2_32_10491" style="mask-type:luminance" maskUnits="userSpaceOnUse" x="292" y="75" width="71" height="71">
<path d="M327.464 75.9792C308.135 75.9792 292.464 91.651 292.464 110.979C292.464 130.307 308.135 145.974 327.464 145.974C346.792 145.974 362.458 130.307 362.458 110.979C362.458 91.651 346.792 75.9792 327.464 75.9792Z" fill="white"/>
</mask>
<g mask="url(#mask2_32_10491)">
<path d="M292.464 75.9792H362.458V145.974H292.464V75.9792Z" fill="#DF3821"/>
</g>
</g>
<mask id="mask3_32_10491" style="mask-type:luminance" maskUnits="userSpaceOnUse" x="235" y="237" width="71" height="74">
<path d="M235.099 237.885H305.099V310.797H235.099V237.885Z" fill="white"/>
</mask>
<g mask="url(#mask3_32_10491)">
<path d="M235.099 237.885H305.099V310.885H235.099V237.885Z" fill="#B9E185"/>
</g>
<path d="M43.6309 145.739C36.7142 145.739 30.3705 144.926 24.61 143.301C18.8444 141.676 13.9225 139.442 9.83921 136.593C5.7663 133.734 2.75588 130.463 0.797546 126.78L14.9434 111.53H16.8809C20.2559 116.062 24.2403 119.463 28.8392 121.739C33.433 124.004 38.4278 125.135 43.8184 125.135C48.7871 125.135 52.5319 124.249 55.0475 122.468C57.558 120.692 58.8184 118.15 58.8184 114.843C58.8184 112.26 57.9069 110.103 56.0892 108.364C54.2819 106.614 51.36 105.249 47.3184 104.26L33.9017 101.051C23.8444 98.6659 16.4955 95.0044 11.86 90.0721C7.23505 85.1294 4.92255 78.8586 4.92255 71.2596C4.92255 64.9419 6.53192 59.4576 9.75588 54.8013C12.9746 50.1346 17.5111 46.5826 23.36 44.1346C29.2194 41.6763 36.0371 40.4471 43.8184 40.4471C52.9538 40.4471 60.5267 41.7701 66.5267 44.4055C72.5371 47.0461 77.235 50.5669 80.61 54.968L66.985 69.6971H65.1517C62.3288 66.5044 59.1569 64.1711 55.6309 62.6971C52.1153 61.2284 48.1778 60.4888 43.8184 60.4888C33.7611 60.4888 28.735 63.6138 28.735 69.8638C28.735 72.5044 29.6725 74.6555 31.5475 76.3221C33.4225 77.9784 36.7142 79.3221 41.4225 80.3638L53.9434 83.1138C64.235 85.3221 71.7559 88.8638 76.5059 93.7388C81.2559 98.6138 83.6309 105.155 83.6309 113.364C83.6309 119.812 82.0319 125.484 78.8392 130.385C75.6569 135.291 71.058 139.072 65.0475 141.739C59.0475 144.405 51.9069 145.739 43.6309 145.739Z" fill="black"/>
<path d="M106.657 30.2388C102.058 30.2388 98.3136 28.8534 95.4282 26.0721C92.5532 23.2805 91.1157 19.6763 91.1157 15.2596C91.1157 10.9003 92.5532 7.33257 95.4282 4.55132C98.3136 1.75965 102.058 0.363815 106.657 0.363815C109.725 0.363815 112.454 1.00965 114.845 2.30132C117.23 3.58257 119.084 5.33777 120.407 7.57215C121.725 9.81173 122.386 12.3742 122.386 15.2596C122.386 18.1346 121.725 20.7128 120.407 22.9888C119.084 25.2544 117.23 27.0305 114.845 28.3221C112.454 29.6034 109.725 30.2388 106.657 30.2388ZM93.9698 143.801V42.3847H119.428V143.801H93.9698Z" fill="black"/>
<path d="M171.04 145.739C164.124 145.739 157.78 144.926 152.019 143.301C146.254 141.676 141.332 139.442 137.249 136.593C133.176 133.734 130.165 130.463 128.207 126.78L142.353 111.53H144.29C147.665 116.062 151.65 119.463 156.249 121.739C160.842 124.004 165.837 125.135 171.228 125.135C176.197 125.135 179.941 124.249 182.457 122.468C184.967 120.692 186.228 118.15 186.228 114.843C186.228 112.26 185.316 110.103 183.499 108.364C181.691 106.614 178.769 105.249 174.728 104.26L161.311 101.051C151.254 98.6659 143.905 95.0044 139.269 90.0721C134.644 85.1294 132.332 78.8586 132.332 71.2596C132.332 64.9419 133.941 59.4576 137.165 54.8013C140.384 50.1346 144.92 46.5826 150.769 44.1346C156.629 41.6763 163.447 40.4471 171.228 40.4471C180.363 40.4471 187.936 41.7701 193.936 44.4055C199.947 47.0461 204.644 50.5669 208.019 54.968L194.394 69.6971H192.561C189.738 66.5044 186.566 64.1711 183.04 62.6971C179.525 61.2284 175.587 60.4888 171.228 60.4888C161.17 60.4888 156.144 63.6138 156.144 69.8638C156.144 72.5044 157.082 74.6555 158.957 76.3221C160.832 77.9784 164.124 79.3221 168.832 80.3638L181.353 83.1138C191.644 85.3221 199.165 88.8638 203.915 93.7388C208.665 98.6138 211.04 105.155 211.04 113.364C211.04 119.812 209.441 125.484 206.249 130.385C203.066 135.291 198.467 139.072 192.457 141.739C186.457 144.405 179.316 145.739 171.04 145.739Z" fill="black"/>
<path d="M253.192 145.739C241.785 145.739 233.369 142.629 227.942 136.405C222.525 130.187 219.817 121.249 219.817 109.593V42.3846H245.275V106.385C245.275 112.567 246.608 117.088 249.275 119.947C251.942 122.796 256.067 124.218 261.65 124.218C268.692 124.218 274.171 121.905 278.088 117.28C282.015 112.645 283.983 105.359 283.983 95.4263V42.3846H309.463V143.801H285.004V128.905L283.067 128.447C279.817 134.27 275.843 138.609 271.15 141.468C266.468 144.312 260.483 145.739 253.192 145.739Z" fill="black"/>
<path d="M43.6309 270.003C36.7142 270.003 30.3705 269.191 24.61 267.566C18.8444 265.941 13.9225 263.706 9.83921 260.857C5.7663 257.998 2.75588 254.727 0.797546 251.045L14.9434 235.795H16.8809C20.2559 240.326 24.2403 243.727 28.8392 246.003C33.433 248.269 38.4278 249.399 43.8184 249.399C48.7871 249.399 52.5319 248.514 55.0475 246.732C57.558 244.956 58.8184 242.415 58.8184 239.107C58.8184 236.524 57.9069 234.368 56.0892 232.628C54.2819 230.878 51.36 229.514 47.3184 228.524L33.9017 225.316C23.8444 222.93 16.4955 219.269 11.86 214.337C7.23505 209.394 4.92255 203.123 4.92255 195.524C4.92255 189.206 6.53192 183.722 9.75588 179.066C12.9746 174.399 17.5111 170.847 23.36 168.399C29.2194 165.941 36.0371 164.712 43.8184 164.712C52.9538 164.712 60.5267 166.035 66.5267 168.67C72.5371 171.311 77.235 174.831 80.61 179.232L66.985 193.962H65.1517C62.3288 190.769 59.1569 188.436 55.6309 186.962C52.1153 185.493 48.1778 184.753 43.8184 184.753C33.7611 184.753 28.735 187.878 28.735 194.128C28.735 196.769 29.6725 198.92 31.5475 200.587C33.4225 202.243 36.7142 203.587 41.4225 204.628L53.9434 207.378C64.235 209.587 71.7559 213.128 76.5059 218.003C81.2559 222.878 83.6309 229.42 83.6309 237.628C83.6309 244.076 82.0319 249.748 78.8392 254.649C75.6569 259.555 71.058 263.337 65.0475 266.003C59.0475 268.67 51.9069 270.003 43.6309 270.003Z" fill="black"/>
<path d="M118.886 270.003C112.386 270.003 106.741 268.805 101.949 266.42C97.1677 264.019 93.4958 260.503 90.9281 255.878C88.3552 251.253 87.074 245.691 87.074 239.191C87.074 233.191 88.3552 228.16 90.9281 224.087C93.4958 220.003 97.475 216.66 102.866 214.045C108.267 211.436 115.324 209.43 124.032 208.024C130.1 207.04 134.709 205.972 137.866 204.816C141.032 203.649 143.163 202.331 144.261 200.857C145.355 199.389 145.907 197.514 145.907 195.232C145.907 191.998 144.772 189.519 142.511 187.795C140.246 186.076 136.475 185.212 131.199 185.212C125.558 185.212 120.199 186.472 115.116 188.982C110.032 191.498 105.616 194.811 101.866 198.92H100.032L89.3656 182.837C94.5167 177.128 100.803 172.686 108.22 169.503C115.636 166.311 123.725 164.712 132.491 164.712C145.918 164.712 155.636 167.566 161.636 173.274C167.647 178.972 170.657 187.061 170.657 197.545V241.587C170.657 246.118 172.647 248.378 176.636 248.378C178.163 248.378 179.663 248.107 181.136 247.566L182.428 247.92L184.261 265.67C182.845 266.587 180.876 267.337 178.366 267.92C175.85 268.503 173.095 268.795 170.095 268.795C164.022 268.795 159.288 267.639 155.886 265.316C152.48 262.982 150.043 259.331 148.574 254.357L146.657 254.191C141.683 264.732 132.428 270.003 118.886 270.003ZM126.97 250.962C132.855 250.962 137.558 248.993 141.074 245.045C144.6 241.087 146.366 235.581 146.366 228.524V218.232L144.636 217.857C143.095 219.081 141.079 220.107 138.595 220.941C136.121 221.774 132.553 222.587 127.886 223.378C122.371 224.295 118.397 225.873 115.97 228.107C113.553 230.347 112.345 233.519 112.345 237.628C112.345 241.977 113.626 245.29 116.199 247.566C118.782 249.831 122.371 250.962 126.97 250.962Z" fill="black"/>
<path d="M198.358 311.107C194.009 311.107 190.072 310.764 186.545 310.087C183.014 309.404 180.15 308.514 177.941 307.42L181.983 286.816L183.65 286.274C185.176 287.066 187.072 287.701 189.337 288.191C191.613 288.691 193.947 288.941 196.337 288.941C200.447 288.941 203.863 288.399 206.587 287.316C209.306 286.243 211.618 284.467 213.525 281.982C215.426 279.508 217.113 276.066 218.587 271.649L178.129 166.649H204.795L229.983 237.17H232.191L256.754 166.649H282.671L241.941 274.42C238.691 283.113 235.118 290.113 231.233 295.42C227.342 300.722 222.743 304.66 217.441 307.232C212.134 309.816 205.775 311.107 198.358 311.107Z" fill="black"/>
<path d="M321.865 270.003C314.948 270.003 308.604 269.191 302.844 267.566C297.078 265.941 292.156 263.706 288.073 260.857C284 257.998 280.99 254.727 279.031 251.045L293.177 235.795H295.115C298.49 240.326 302.474 243.727 307.073 246.003C311.667 248.269 316.661 249.399 322.052 249.399C327.021 249.399 330.766 248.514 333.281 246.732C335.792 244.956 337.052 242.415 337.052 239.107C337.052 236.524 336.141 234.368 334.323 232.628C332.516 230.878 329.594 229.514 325.552 228.524L312.135 225.316C302.078 222.93 294.729 219.269 290.094 214.337C285.469 209.394 283.156 203.123 283.156 195.524C283.156 189.206 284.766 183.722 287.99 179.066C291.208 174.399 295.745 170.847 301.594 168.399C307.453 165.941 314.271 164.712 322.052 164.712C331.187 164.712 338.76 166.035 344.76 168.67C350.771 171.311 355.469 174.831 358.844 179.232L345.219 193.962H343.385C340.562 190.769 337.391 188.436 333.865 186.962C330.349 185.493 326.411 184.753 322.052 184.753C311.995 184.753 306.969 187.878 306.969 194.128C306.969 196.769 307.906 198.92 309.781 200.587C311.656 202.243 314.948 203.587 319.656 204.628L332.177 207.378C342.469 209.587 349.99 213.128 354.74 218.003C359.49 222.878 361.865 229.42 361.865 237.628C361.865 244.076 360.266 249.748 357.073 254.649C353.891 259.555 349.292 263.337 343.281 266.003C337.281 268.67 330.141 270.003 321.865 270.003Z" fill="black"/>
</svg>